<?xml version="1.0" encoding="UTF-8" standalone="no"?>
<!DOCTYPE svg PUBLIC "-//W3C//DTD SVG 1.1//EN"
 "http://www.w3.org/Graphics/SVG/1.1/DTD/svg11.dtd">
<!-- Generated by graphviz version 2.43.0 (0)
 -->
<!-- Title: CallGraph Pages: 1 -->
<svg width="1023pt" height="373pt"
 viewBox="0.00 0.00 1023.00 372.92" xmlns="http://www.w3.org/2000/svg" xmlns:xlink="http://www.w3.org/1999/xlink">
<g id="graph0" class="graph" transform="scale(1 1) rotate(0) translate(4 368.92)">
<title>CallGraph</title>
<polygon fill="white" stroke="transparent" points="-4,4 -4,-368.92 1019,-368.92 1019,4 -4,4"/>
<!-- types_ts -->
<g id="node1" class="node">
<title>types_ts</title>
<polygon fill="lightgray" stroke="black" points="74,-140.92 71,-144.92 50,-144.92 47,-140.92 0,-140.92 0,-104.92 74,-104.92 74,-140.92"/>
<text text-anchor="middle" x="37" y="-119.22" font-family="Times,serif" font-size="14.00">types.ts</text>
</g>
<!-- diagram_ts -->
<g id="node2" class="node">
<title>diagram_ts</title>
<polygon fill="lightgray" stroke="black" points="467,-356.92 464,-360.92 443,-360.92 440,-356.92 373,-356.92 373,-320.92 467,-320.92 467,-356.92"/>
<text text-anchor="middle" x="420" y="-335.22" font-family="Times,serif" font-size="14.00">diagram.ts</text>
</g>
<!-- function_call_analyzer_ts -->
<g id="node3" class="node">
<title>function_call_analyzer_ts</title>
<polygon fill="lightgray" stroke="black" points="513,-302.92 510,-306.92 489,-306.92 486,-302.92 327,-302.92 327,-266.92 513,-266.92 513,-302.92"/>
<text text-anchor="middle" x="420" y="-281.22" font-family="Times,serif" font-size="14.00">function&#45;call&#45;analyzer.ts</text>
</g>
<!-- graph_adapter_ts -->
<g id="node4" class="node">
<title>graph_adapter_ts</title>
<polygon fill="lightgray" stroke="black" points="487.5,-248.92 484.5,-252.92 463.5,-252.92 460.5,-248.92 352.5,-248.92 352.5,-212.92 487.5,-212.92 487.5,-248.92"/>
<text text-anchor="middle" x="420" y="-227.22" font-family="Times,serif" font-size="14.00">graph&#45;adapter.ts</text>
</g>
<!-- graph_diagram_ts -->
<g id="node5" class="node">
<title>graph_diagram_ts</title>
<polygon fill="lightgray" stroke="black" points="490,-194.92 487,-198.92 466,-198.92 463,-194.92 350,-194.92 350,-158.92 490,-158.92 490,-194.92"/>
<text text-anchor="middle" x="420" y="-173.22" font-family="Times,serif" font-size="14.00">graph&#45;diagram.ts</text>
</g>
<!-- graph_operations_ts -->
<g id="node6" class="node">
<title>graph_operations_ts</title>
<polygon fill="lightgray" stroke="black" points="498.5,-140.92 495.5,-144.92 474.5,-144.92 471.5,-140.92 341.5,-140.92 341.5,-104.92 498.5,-104.92 498.5,-140.92"/>
<text text-anchor="middle" x="420" y="-119.22" font-family="Times,serif" font-size="14.00">graph&#45;operations.ts</text>
</g>
<!-- svg_generator_ts -->
<g id="node7" class="node">
<title>svg_generator_ts</title>
<polygon fill="lightgray" stroke="black" points="1015,-71.92 1012,-75.92 991,-75.92 988,-71.92 882,-71.92 882,-35.92 1015,-35.92 1015,-71.92"/>
<text text-anchor="middle" x="948.5" y="-50.22" font-family="Times,serif" font-size="14.00">svg&#45;generator.ts</text>
</g>
<!-- layout_ts -->
<g id="node8" class="node">
<title>layout_ts</title>
<polygon fill="lightgray" stroke="black" points="845,-48.92 842,-52.92 821,-52.92 818,-48.92 766,-48.92 766,-12.92 845,-12.92 845,-48.92"/>
<text text-anchor="middle" x="805.5" y="-27.22" font-family="Times,serif" font-size="14.00">layout.ts</text>
</g>
<!-- layout_ts&#45;&gt;svg_generator_ts -->
<g id="edge1" class="edge">
<title>layout_ts&#45;&gt;svg_generator_ts</title>
<path fill="none" stroke="blue" d="M845.03,-37.2C853.41,-38.57 862.56,-40.06 871.83,-41.57"/>
<polygon fill="blue" stroke="blue" points="871.47,-45.06 881.9,-43.22 872.6,-38.15 871.47,-45.06"/>
</g>
<!-- miro_ts -->
<g id="node9" class="node">
<title>miro_ts</title>
<polygon fill="lightgray" stroke="black" points="454,-48.92 451,-52.92 430,-52.92 427,-48.92 386,-48.92 386,-12.92 454,-12.92 454,-48.92"/>
<text text-anchor="middle" x="420" y="-27.22" font-family="Times,serif" font-size="14.00">miro.ts</text>
</g>
<!-- miro_ts&#45;&gt;layout_ts -->
<g id="edge2" class="edge">
<title>miro_ts&#45;&gt;layout_ts</title>
<path fill="none" stroke="blue" d="M464.11,-30.92C536.02,-30.92 679.98,-30.92 755.58,-30.92"/>
<polygon fill="blue" stroke="blue" points="464.03,-27.42 454.03,-30.92 464.03,-34.42 464.03,-27.42"/>
<polygon fill="blue" stroke="blue" points="755.78,-34.42 765.78,-30.92 755.78,-27.42 755.78,-34.42"/>
<text text-anchor="middle" x="639.5" y="-34.72" font-family="Times,serif" font-size="14.00">function_call:2</text>
</g>
<!-- index_ts -->
<g id="node10" class="node">
<title>index_ts</title>
<polygon fill="lightgray" stroke="black" points="74,-194.92 71,-198.92 50,-198.92 47,-194.92 0,-194.92 0,-158.92 74,-158.92 74,-194.92"/>
<text text-anchor="middle" x="37" y="-173.22" font-family="Times,serif" font-size="14.00">index.ts</text>
</g>
<!-- index_ts&#45;&gt;diagram_ts -->
<g id="edge7" class="edge">
<title>index_ts&#45;&gt;diagram_ts</title>
<path fill="none" stroke="blue" stroke-dasharray="5,2" d="M42.54,-204.98C48.65,-233 62.38,-274.96 92,-296.92 171.44,-355.79 292.57,-354.33 362.95,-347.16"/>
<polygon fill="blue" stroke="blue" points="45.94,-204.12 40.55,-194.99 39.07,-205.48 45.94,-204.12"/>
<polygon fill="blue" stroke="blue" points="363.4,-350.63 372.96,-346.06 362.64,-343.67 363.4,-350.63"/>
<text text-anchor="middle" x="200.5" y="-353.72" font-family="Times,serif" font-size="14.00">instantiation:1, function_call:2</text>
</g>
<!-- index_ts&#45;&gt;function_call_analyzer_ts -->
<g id="edge3" class="edge">
<title>index_ts&#45;&gt;function_call_analyzer_ts</title>
<path fill="none" stroke="blue" stroke-dasharray="5,2" d="M61.52,-202.22C70.34,-210.32 80.92,-218.56 92,-223.92 162.47,-257.98 249.99,-273.08 316.74,-279.74"/>
<polygon fill="blue" stroke="blue" points="63.89,-199.64 54.26,-195.22 59.03,-204.68 63.89,-199.64"/>
<polygon fill="blue" stroke="blue" points="316.57,-283.24 326.85,-280.7 317.23,-276.27 316.57,-283.24"/>
<text text-anchor="middle" x="200.5" y="-281.72" font-family="Times,serif" font-size="14.00">instantiation:1, function_call:1</text>
</g>
<!-- index_ts&#45;&gt;graph_adapter_ts -->
<g id="edge4" class="edge">
<title>index_ts&#45;&gt;graph_adapter_ts</title>
<path fill="none" stroke="blue" d="M83.99,-193.89C86.68,-194.64 89.36,-195.32 92,-195.92 176.49,-215.03 275.68,-223.78 342.47,-227.74"/>
<polygon fill="blue" stroke="blue" points="84.85,-190.49 74.26,-190.96 82.83,-197.2 84.85,-190.49"/>
<polygon fill="blue" stroke="blue" points="342.32,-231.23 352.5,-228.31 342.72,-224.25 342.32,-231.23"/>
</g>
<!-- index_ts&#45;&gt;graph_diagram_ts -->
<g id="edge6" class="edge">
<title>index_ts&#45;&gt;graph_diagram_ts</title>
<path fill="none" stroke="blue" stroke-dasharray="5,2" d="M84.32,-176.92C147.71,-176.92 262.39,-176.92 339.62,-176.92"/>
<polygon fill="blue" stroke="blue" points="84.19,-173.42 74.19,-176.92 84.19,-180.42 84.19,-173.42"/>
<polygon fill="blue" stroke="blue" points="339.79,-180.42 349.79,-176.92 339.79,-173.42 339.79,-180.42"/>
<text text-anchor="middle" x="200.5" y="-180.72" font-family="Times,serif" font-size="14.00">instantiation:1, function_call:2</text>
</g>
<!-- index_ts&#45;&gt;graph_operations_ts -->
<g id="edge5" class="edge">
<title>index_ts&#45;&gt;graph_operations_ts</title>
<path fill="none" stroke="blue" d="M84.36,-170.35C145.49,-161.68 254.3,-146.26 331.23,-135.36"/>
<polygon fill="blue" stroke="blue" points="83.6,-166.92 74.19,-171.79 84.58,-173.85 83.6,-166.92"/>
<polygon fill="blue" stroke="blue" points="331.98,-138.78 341.39,-133.92 331,-131.85 331.98,-138.78"/>
</g>
<!-- index_ts&#45;&gt;svg_generator_ts -->
<g id="edge8" class="edge">
<title>index_ts&#45;&gt;svg_generator_ts</title>
<path fill="none" stroke="blue" stroke-dasharray="5,2" d="M70.53,-152.72C71.7,-151.78 72.87,-150.84 74,-149.92 82.29,-143.14 82.33,-138.51 92,-133.92 187.57,-88.52 221.89,-107.95 327,-95.92 522.5,-73.54 754.13,-61.74 871.35,-56.79"/>
<polygon fill="blue" stroke="blue" points="68.35,-149.98 62.61,-158.89 72.65,-155.5 68.35,-149.98"/>
<polygon fill="blue" stroke="blue" points="871.81,-60.28 881.65,-56.36 871.52,-53.28 871.81,-60.28"/>
<text text-anchor="middle" x="639.5" y="-79.72" font-family="Times,serif" font-size="14.00">instantiation:1, function_call:2</text>
</g>
<!-- index_ts&#45;&gt;miro_ts -->
<g id="edge9" class="edge">
<title>index_ts&#45;&gt;miro_ts</title>
<path fill="none" stroke="blue" stroke-dasharray="5,2" d="M73.43,-150.81C73.63,-150.51 73.82,-150.22 74,-149.92 98.1,-110.69 57.51,-78.41 92,-47.92 170.95,21.89 307.03,-0.49 376.1,-18.15"/>
<polygon fill="blue" stroke="blue" points="70.53,-148.82 66.79,-158.73 75.9,-153.32 70.53,-148.82"/>
<polygon fill="blue" stroke="blue" points="375.23,-21.54 385.79,-20.71 377.02,-14.77 375.23,-21.54"/>
<text text-anchor="middle" x="200.5" y="-51.72" font-family="Times,serif" font-size="14.00">instantiation:1, function_call:1</text>
</g>
</g>
</svg>
